<?xml version="1.0" standalone="no"?>
<!DOCTYPE svg PUBLIC "-//W3C//DTD SVG 20010904//EN"
 "http://www.w3.org/TR/2001/REC-SVG-20010904/DTD/svg10.dtd">
<svg version="1.0" xmlns="http://www.w3.org/2000/svg"
 width="512.000000pt" height="512.000000pt" viewBox="0 0 512.000000 512.000000"
 preserveAspectRatio="xMidYMid meet">
<metadata>
Created by potrace 1.11, written by Peter Selinger 2001-2013
</metadata>
<g transform="translate(0.000000,512.000000) scale(0.100000,-0.100000)"
fill="#000000" stroke="none">
<path d="M1968 5015 c-2 -2 -43 -6 -93 -9 -49 -4 -98 -9 -110 -11 -11 -2 -36
-7 -55 -9 -152 -22 -367 -81 -533 -147 -224 -89 -527 -265 -648 -376 -31 -28
-29 -30 -58 59 -12 37 -32 82 -44 100 -40 59 -125 61 -163 2 -35 -52 -60 26
406 -1274 105 -294 279 -778 385 -1075 106 -297 220 -614 253 -705 34 -91 115
-318 182 -505 67 -187 132 -370 146 -407 55 -153 75 -210 124 -348 61 -171 87
-205 151 -197 54 6 84 35 94 88 2 11 -16 77 -42 147 -25 70 -51 145 -58 167
-8 22 -84 236 -170 475 -86 239 -163 455 -171 480 -8 25 -19 54 -23 65 -25 60
-29 73 -23 81 18 26 191 161 290 228 158 105 374 206 492 230 14 2 48 9 75 15
28 5 115 9 194 9 202 -2 329 -23 611 -103 134 -38 236 -62 330 -80 130 -25
363 -25 525 -1 234 35 601 165 653 231 l22 28 0 1388 0 1387 -26 31 c-29 35
-81 49 -115 30 -13 -6 -55 -35 -94 -64 -208 -152 -457 -269 -690 -321 -108
-24 -303 -25 -404 -1 -93 22 -226 76 -415 166 -229 109 -410 176 -530 195 -22
4 -48 8 -60 11 -62 14 -95 17 -243 20 -89 1 -163 2 -165 0z m295 -275 c10 -36
20 -72 21 -80 2 -8 11 -42 20 -75 43 -157 89 -331 117 -442 l31 -123 32 0 c71
0 307 -82 555 -194 69 -31 126 -56 128 -56 3 0 2 8 -1 18 -7 21 -86 368 -126
552 -16 74 -34 147 -39 163 -5 15 -7 27 -4 27 3 0 47 -16 97 -36 254 -101 471
-121 748 -68 35 6 38 5 37 -17 -1 -22 6 -123 16 -220 2 -19 7 -76 10 -125 3
-49 8 -102 10 -119 2 -16 6 -75 10 -130 4 -55 9 -103 11 -106 27 -46 -294 -77
-459 -45 -65 13 -223 62 -289 90 -19 9 -20 12 7 -99 16 -69 100 -437 115 -505
49 -223 54 -240 70 -245 83 -26 368 -41 485 -25 33 5 71 10 85 12 44 6 52 16
46 66 -3 26 -8 81 -11 122 -3 41 -8 95 -10 120 -2 25 -7 79 -10 120 -3 41 -8
93 -10 115 -2 22 -7 85 -10 140 -4 55 -9 103 -11 107 -2 3 9 9 25 13 98 21
351 139 488 228 24 15 46 27 51 27 4 0 8 -196 7 -436 l0 -437 -65 -30 c-123
-57 -283 -112 -413 -141 l-28 -7 6 -72 c7 -99 15 -193 20 -247 3 -25 7 -83 10
-130 3 -47 8 -105 10 -130 14 -158 15 -189 8 -193 -33 -20 -368 -31 -463 -14
l-45 8 -34 147 c-18 81 -57 255 -87 386 -30 132 -57 243 -62 248 -4 4 -52 19
-107 34 -55 14 -149 40 -210 56 -60 16 -119 31 -130 33 -11 3 -47 11 -80 19
-82 19 -125 26 -125 21 0 -3 9 -39 20 -80 46 -172 60 -225 85 -320 14 -55 42
-158 61 -228 43 -163 43 -160 -3 -153 -145 21 -370 28 -478 14 -38 -5 -107
-18 -153 -29 -46 -11 -86 -18 -89 -16 -2 3 -20 45 -38 94 -18 48 -81 214 -139
367 -59 154 -103 283 -99 287 10 9 207 64 288 80 94 19 474 13 507 -8 5 -2 15
-2 23 1 11 4 13 11 6 28 -5 13 -19 61 -31 108 -12 47 -28 105 -35 130 -7 25
-50 186 -96 358 -64 242 -87 316 -102 323 -17 10 -289 14 -332 5 -11 -2 -47
-7 -80 -10 -33 -4 -82 -11 -110 -16 -27 -5 -61 -11 -75 -14 -80 -13 -320 -82
-320 -92 0 -2 76 -200 170 -440 94 -240 170 -443 170 -450 0 -8 -6 -14 -12
-14 -27 0 -216 -104 -337 -185 -69 -46 -171 -120 -226 -164 -55 -44 -102 -81
-105 -81 -6 0 -332 908 -334 929 -3 44 402 299 607 382 31 12 57 27 57 33 0 6
-63 173 -140 371 -77 198 -136 363 -132 367 17 17 287 98 403 122 146 29 185
33 344 42 66 4 121 7 122 8 1 0 32 -1 70 -4 l68 -5 18 -65z"/>
</g>
</svg>
